Coordinates
version=1
nRows=20
nColumns=38
inDegrees=no

Units are S.I. units (second, meters, Newtons, ...)
If the header above contains a line with 'inDegrees', this indicates whether rotational values are in degrees (yes) or radians (no).

endheader
time	pelvis_tilt	pelvis_list	pelvis_rotation	pelvis_tx	pelvis_ty	pelvis_tz	hip_flexion_r	hip_adduction_r	hip_rotation_r	knee_angle_r	ankle_angle_r	subtalar_angle_r	mtp_angle_r	hip_flexion_l	hip_adduction_l	hip_rotation_l	knee_angle_l	ankle_angle_l	subtalar_angle_l	mtp_angle_l	lumbar_extension	lumbar_bending	lumbar_rotation	arm_flex_r	arm_add_r	arm_rot_r	elbow_flex_r	pro_sup_r	wrist_flex_r	wrist_dev_r	arm_flex_l	arm_add_l	arm_rot_l	elbow_flex_l	pro_sup_l	wrist_flex_l	wrist_dev_l
2.75	-0.382677	1.46264	-0.591692	0.834987	0.741619	0.935783	0.487822	-0.18087	-0.368627	0.809051	0.0465522	0	0	-0.196141	-0.106105	0.0720057	0.00863718	0.117105	0	0	-0.409805	0.153127	0.316436	0.887318	-0.360196	-0.0757246	0.641991	1.5708	0	0	-0.213541	-0.449261	0.338867	0.851441	1.23943	0	0
2.76	-0.392665	1.46574	-0.577607	0.835794	0.73578	0.93469	0.486341	-0.186074	-0.37173	0.766622	0.0338414	0	0	-0.199999	-0.10819	0.0755941	0.006879	0.122014	0	0	-0.404044	0.153167	0.313449	0.87752	-0.364536	-0.0912962	0.651643	1.5708	0	0	-0.219361	-0.449211	0.334613	0.849155	1.24156	0	0
2.77	-0.458563	1.46897	-0.512709	0.835084	0.729874	0.93327	0.495622	-0.172885	-0.350795	0.728745	0.046836	0	0	-0.195727	-0.113889	0.0724867	0.0108932	0.130031	0	0	-0.395482	0.152878	0.316663	0.868273	-0.368683	-0.107725	0.661865	1.5708	0	0	-0.223093	-0.44945	0.330441	0.846501	1.24351	0	0
2.78	-0.482919	1.47274	-0.484992	0.835625	0.723825	0.931897	0.493483	-0.176163	-0.349871	0.684996	0.0391307	0	0	-0.193861	-0.115806	0.0705508	0.0179454	0.140092	0	0	-0.388002	0.152164	0.314501	0.856521	-0.37214	-0.1271	0.674023	1.5708	0	0	-0.229083	-0.448967	0.324792	0.844075	1.24781	0	0
2.79	-0.499805	1.47844	-0.463884	0.836943	0.718395	0.930572	0.491998	-0.193508	-0.327531	0.651704	-0.0182631	0	0	-0.191326	-0.113765	0.0729722	0.025155	0.148035	0	0	-0.380302	0.151458	0.310711	0.845415	-0.377892	-0.140932	0.685762	1.5708	0	0	-0.234457	-0.445806	0.321792	0.839694	1.25331	0	0
2.8	-0.504826	1.48169	-0.454655	0.837806	0.711966	0.92923	0.480927	-0.202466	-0.336899	0.606383	-0.0126821	0	0	-0.192433	-0.115026	0.0733577	0.0314898	0.157144	0	0	-0.37383	0.150578	0.307419	0.831645	-0.381149	-0.15892	0.699892	1.5708	0	0	-0.241476	-0.445363	0.31857	0.836984	1.26305	0	0
2.81	-0.521822	1.48551	-0.434967	0.838457	0.70533	0.927684	0.47466	-0.205547	-0.338213	0.564299	-0.00915538	0	0	-0.192603	-0.116139	0.0729752	0.0380677	0.166536	0	0	-0.366253	0.148978	0.305196	0.816816	-0.38343	-0.178741	0.715861	1.5708	0	0	-0.249192	-0.444279	0.31206	0.83397	1.27306	0	0
2.82	-0.537187	1.48896	-0.417193	0.839079	0.698533	0.926124	0.467262	-0.20782	-0.33828	0.524258	-0.00382811	0	0	-0.193287	-0.117576	0.0720016	0.0449698	0.176027	0	0	-0.359071	0.147534	0.303163	0.801368	-0.385131	-0.199184	0.732785	1.5708	0	0	-0.257106	-0.442321	0.301905	0.831054	1.27892	0	0
2.83	-0.550679	1.49222	-0.401395	0.83967	0.691622	0.924534	0.458666	-0.20944	-0.335705	0.485528	0.000793618	0	0	-0.194203	-0.119156	0.0704515	0.0522974	0.185643	0	0	-0.352289	0.14615	0.301178	0.78572	-0.387094	-0.218323	0.749897	1.5708	0	0	-0.265074	-0.439962	0.292347	0.828085	1.28313	0	0
2.84	-0.561632	1.49464	-0.388321	0.840259	0.68448	0.92297	0.449072	-0.209911	-0.333677	0.449756	0.00387897	0	0	-0.196274	-0.121637	0.0684463	0.059138	0.195076	0	0	-0.345919	0.145283	0.299331	0.769418	-0.389259	-0.235756	0.767593	1.5708	0	0	-0.273242	-0.437678	0.284877	0.824855	1.28716	0	0
2.85	-0.540118	1.49749	-0.406398	0.840911	0.676178	0.921081	0.441525	-0.207429	-0.370689	0.412541	0.0325722	0	0	-0.203245	-0.124105	0.0675844	0.0627408	0.204676	0	0	-0.339226	0.141879	0.295026	0.749841	-0.388688	-0.254784	0.787217	1.5708	0	0	-0.28509	-0.439168	0.276514	0.82552	1.29213	0	0
2.86	-0.552731	1.49897	-0.392489	0.841417	0.668702	0.919479	0.432456	-0.206395	-0.365548	0.384159	0.036789	0	0	-0.20707	-0.127869	0.0662427	0.0677385	0.213371	0	0	-0.333081	0.142296	0.293291	0.730629	-0.407165	-0.227198	0.806609	1.5708	0	0	-0.292943	-0.436004	0.27085	0.820449	1.29474	0	0
2.87	-0.573938	1.50061	-0.3698	0.841945	0.661082	0.917852	0.424465	-0.205834	-0.36281	0.362455	0.0430931	0	0	-0.210672	-0.13179	0.0654611	0.0721478	0.22124	0	0	-0.32606	0.14251	0.291116	0.71217	-0.4114	-0.233671	0.826038	1.5708	0	0	-0.300733	-0.432912	0.266843	0.815147	1.29584	0	0
2.88	-0.623563	1.5052	-0.318034	0.842331	0.652892	0.915804	0.411687	-0.203332	-0.339394	0.317498	0.0309781	0	0	-0.211199	-0.134293	0.0641151	0.0772947	0.229654	0	0	-0.313699	0.139977	0.283269	0.663595	-0.394628	-0.205614	0.898945	1.5708	0	0	-0.31334	-0.430381	0.258895	0.81026	1.29735	0	0
2.89	-0.634043	1.50442	-0.306048	0.843019	0.645077	0.914438	0.410709	-0.204734	-0.36454	0.331565	0.0547681	0	0	-0.216913	-0.140471	0.0603782	0.0816353	0.237404	0	0	-0.308851	0.14299	0.281731	0.643444	-0.399035	-0.212961	0.924822	1.5708	0	0	-0.319429	-0.424997	0.256631	0.801465	1.30118	0	0
2.9	-0.646767	1.50585	-0.291031	0.8437	0.636906	0.912757	0.403159	-0.204626	-0.368773	0.324165	0.0613856	0	0	-0.222722	-0.144834	0.0596231	0.0839115	0.243576	0	0	-0.302142	0.143587	0.277228	0.625443	-0.398929	-0.223841	0.94431	1.5708	0	0	-0.328139	-0.421366	0.253576	0.796556	1.30107	0	0
2.91	-0.658049	1.50657	-0.277219	0.844371	0.628475	0.911094	0.395297	-0.203597	-0.375403	0.321293	0.0676433	0	0	-0.228876	-0.15024	0.0583746	0.0867688	0.250219	0	0	-0.295707	0.144885	0.272407	0.605905	-0.398638	-0.234685	0.967109	1.5708	0	0	-0.336761	-0.417584	0.251048	0.79114	1.29952	0	0
2.92	-0.669028	1.50707	-0.26352	0.845032	0.619852	0.909427	0.38736	-0.201997	-0.383367	0.32259	0.0744227	0	0	-0.235061	-0.156081	0.056826	0.0901375	0.256584	0	0	-0.289098	0.146449	0.266381	0.587189	-0.398246	-0.242524	0.987475	1.5708	0	0	-0.346024	-0.414031	0.250074	0.78619	1.29784	0	0
2.93	-0.682052	1.50764	-0.247771	0.845723	0.611079	0.907752	0.379555	-0.200169	-0.392621	0.327898	0.0818068	0	0	-0.241019	-0.161987	0.0544455	0.0939699	0.262756	0	0	-0.282159	0.148044	0.259547	0.56909	-0.39796	-0.247754	1.00709	1.5708	0	0	-0.355575	-0.410412	0.250506	0.781307	1.29557	0	0
2.94	-0.698967	1.50784	-0.228339	0.846355	0.602159	0.906109	0.371683	-0.19724	-0.403505	0.335356	0.0880337	0	0	-0.246391	-0.168425	0.0508194	0.0988831	0.268699	0	0	-0.275055	0.150048	0.25222	0.551953	-0.397553	-0.25079	1.02589	1.5708	0	0	-0.365263	-0.406412	0.251171	0.776457	1.29341	0	0
